<?xml version="1.0" encoding="UTF-8" standalone="no"?><svg xmlns="http://www.w3.org/2000/svg" xmlns:xlink="http://www.w3.org/1999/xlink" contentScriptType="application/ecmascript" contentStyleType="text/css" height="269px" preserveAspectRatio="none" style="width:724px;height:269px;background:#00000000;" version="1.1" viewBox="0 0 724 269" width="724px" zoomAndPan="magnify"><defs><filter height="300%" id="fbogj75ym982y" width="300%" x="-1" y="-1"><feGaussianBlur result="blurOut" stdDeviation="2.0"/><feColorMatrix in="blurOut" result="blurOut2" type="matrix" values="0 0 0 0 0 0 0 0 0 0 0 0 0 0 0 0 0 0 .4 0"/><feOffset dx="4.0" dy="4.0" in="blurOut2" result="blurOut3"/><feBlend in="SourceGraphic" in2="blurOut3" mode="normal"/></filter></defs><g><!--MD5=[8ad24545873f5cdcae33052e31365fe7]
class JsonSchemaBuilderProvider--><rect codeLine="4" fill="#FEFECE" filter="url(#fbogj75ym982y)" height="164.5957" id="JsonSchemaBuilderProvider" style="stroke:#A80036;stroke-width:1.5;" width="701" x="9" y="91"/><ellipse cx="277.25" cy="107" fill="#ADD1B2" rx="11" ry="11" style="stroke:#A80036;stroke-width:1.0;"/><path d="M279.7231,113.1431 Q279.1421,113.4419 278.5029,113.5913 Q277.8638,113.7407 277.1582,113.7407 Q274.6514,113.7407 273.3315,112.0889 Q272.0117,110.437 272.0117,107.3159 Q272.0117,104.1865 273.3315,102.5347 Q274.6514,100.8828 277.1582,100.8828 Q277.8638,100.8828 278.5112,101.0322 Q279.1587,101.1816 279.7231,101.4805 L279.7231,104.2031 Q279.0923,103.6221 278.4988,103.3523 Q277.9053,103.0825 277.2744,103.0825 Q275.9297,103.0825 275.2449,104.1492 Q274.5601,105.2158 274.5601,107.3159 Q274.5601,109.4077 275.2449,110.4744 Q275.9297,111.541 277.2744,111.541 Q277.9053,111.541 278.4988,111.2712 Q279.0923,111.0015 279.7231,110.4204 Z " fill="#000000"/><text fill="#000000" font-family="sans-serif" font-size="12" lengthAdjust="spacing" textLength="156" x="297.75" y="111.5352">JsonSchemaBuilderProvider</text><line style="stroke:#A80036;stroke-width:1.5;" x1="10" x2="709" y1="123" y2="123"/><ellipse cx="20" cy="134" rx="3" ry="3" style="stroke:#038048;stroke-width:1.0;fill:none;"/><text fill="#000000" font-family="sans-serif" font-size="11" lengthAdjust="spacing" text-decoration="underline" textLength="174" x="29" y="137.6348">viewType : "jsonschema-builder"</text><rect fill="none" height="6" style="stroke:#C82930;stroke-width:1.0;" width="6" x="17" y="143.9551"/><text fill="#000000" font-family="sans-serif" font-size="11" lengthAdjust="spacing" textLength="76" x="29" y="150.5898">content : JSON</text><rect fill="none" height="6" style="stroke:#C82930;stroke-width:1.0;" width="6" x="17" y="156.9102"/><text fill="#000000" font-family="sans-serif" font-size="11" lengthAdjust="spacing" text-decoration="underline" textLength="93" x="29" y="163.5449">counter : number</text><rect fill="none" height="6" style="stroke:#C82930;stroke-width:1.0;" width="6" x="17" y="169.8652"/><text fill="#000000" font-family="sans-serif" font-size="11" lengthAdjust="spacing" textLength="214" x="29" y="176.5">renderer : JsonSchemaRendererProvider</text><rect fill="none" height="6" style="stroke:#C82930;stroke-width:1.0;" width="6" x="17" y="182.8203"/><text fill="#000000" font-family="sans-serif" font-size="11" lengthAdjust="spacing" textLength="204" x="29" y="189.4551">writeData : Function &amp; Object &amp; Object</text><line style="stroke:#A80036;stroke-width:1.5;" x1="10" x2="709" y1="195.7754" y2="195.7754"/><ellipse cx="20" cy="206.7754" fill="#84BE84" rx="3" ry="3" style="stroke:#038048;stroke-width:1.0;"/><text fill="#000000" font-family="sans-serif" font-size="11" lengthAdjust="spacing" textLength="675" x="29" y="210.4102">resolveCustomTextEditor(document: TextDocument, webviewPanel: WebviewPanel, token: CancellationToken) : Promise&lt;void&gt;</text><polygon fill="#FFFF44" points="20,214.7305,24,218.7305,20,222.7305,16,218.7305" style="stroke:#B38D22;stroke-width:1.0;"/><text fill="#000000" font-family="sans-serif" font-size="11" lengthAdjust="spacing" textLength="487" x="29" y="223.3652">writeChangesToDocument(document: TextDocument, content: JSON) : Thenable&lt;boolean&gt;</text><rect fill="#F24D5C" height="6" style="stroke:#C82930;stroke-width:1.0;" width="6" x="17" y="229.6855"/><text fill="#000000" font-family="sans-serif" font-size="11" lengthAdjust="spacing" textLength="162" x="29" y="236.3203">getContent(text: string) : JSON</text><rect fill="#F24D5C" height="6" style="stroke:#C82930;stroke-width:1.0;" width="6" x="17" y="242.6406"/><text fill="#000000" font-family="sans-serif" font-size="11" lengthAdjust="spacing" textLength="196" x="29" y="249.2754">init(document: TextDocument) : void</text><!--MD5=[dc4686f8391f23d872484faecfb47227]
class CustomTextEditorProvider--><rect codeLine="15" fill="#FEFECE" filter="url(#fbogj75ym982y)" height="24.1328" id="CustomTextEditorProvider" style="stroke:#A80036;stroke-width:1.5;" width="157" x="281" y="7"/><text fill="#000000" font-family="sans-serif" font-size="12" lengthAdjust="spacing" textLength="151" x="284" y="23.6016">CustomTextEditorProvider</text><!--MD5=[14561fe43220ea7273513e6929156591]
reverse link CustomTextEditorProvider to JsonSchemaBuilderProvider--><path codeLine="17" d="M359.5,51.68 C359.5,63.27 359.5,76.98 359.5,90.93 " fill="none" id="CustomTextEditorProvider-backto-JsonSchemaBuilderProvider" style="stroke:#A80036;stroke-width:1.0;stroke-dasharray:7.0,7.0;"/><polygon fill="none" points="352.5,51.46,359.5,31.46,366.5,51.46,352.5,51.46" style="stroke:#A80036;stroke-width:1.0;"/><!--MD5=[796c63a5337363f02e2aa09084883d3f]
@startuml
skinparam BackgroundColor transparent
hide empty methods
hide empty fields
class "JsonSchemaBuilderProvider" {
    {static} +viewType : "jsonschema-builder"
    -content : JSON
    {static} -counter : number
    -renderer : JsonSchemaRendererProvider
    -writeData : Function & Object & Object
    +resolveCustomTextEditor(document: TextDocument, webviewPanel: WebviewPanel, token: CancellationToken) : Promise<void>
    #writeChangesToDocument(document: TextDocument, content: JSON) : Thenable<boolean>
    -getContent(text: string) : JSON
    -init(document: TextDocument) : void
}
class "CustomTextEditorProvider"
hide "CustomTextEditorProvider" circle
"CustomTextEditorProvider" <|.. "JsonSchemaBuilderProvider"
@enduml

PlantUML version 1.2021.14(Fri Nov 12 17:46:50 CET 2021)
(GPL source distribution)
Java Runtime: OpenJDK Runtime Environment
JVM: OpenJDK 64-Bit Server VM
Default Encoding: UTF-8
Language: de
Country: DE
--></g></svg>