<?xml version="1.0" encoding="UTF-8" standalone="no"?><svg xmlns="http://www.w3.org/2000/svg" xmlns:xlink="http://www.w3.org/1999/xlink" contentScriptType="application/ecmascript" contentStyleType="text/css" height="256px" preserveAspectRatio="none" style="width:852px;height:256px;background:#00000000;" version="1.1" viewBox="0 0 852 256" width="852px" zoomAndPan="magnify"><defs><filter height="300%" id="fgxxdh1cduhbe" width="300%" x="-1" y="-1"><feGaussianBlur result="blurOut" stdDeviation="2.0"/><feColorMatrix in="blurOut" result="blurOut2" type="matrix" values="0 0 0 0 0 0 0 0 0 0 0 0 0 0 0 0 0 0 .4 0"/><feOffset dx="4.0" dy="4.0" in="blurOut2" result="blurOut3"/><feBlend in="SourceGraphic" in2="blurOut3" mode="normal"/></filter></defs><g><!--MD5=[f06e51b3e51e3fc3a04515420e1b1e2b]
class JsonSchemaRendererProvider--><rect codeLine="4" fill="#FEFECE" filter="url(#fgxxdh1cduhbe)" height="151.6406" id="JsonSchemaRendererProvider" style="stroke:#A80036;stroke-width:1.5;" width="831" x="7" y="91"/><ellipse cx="333.25" cy="107" fill="#ADD1B2" rx="11" ry="11" style="stroke:#A80036;stroke-width:1.0;"/><path d="M335.7231,113.1431 Q335.1421,113.4419 334.5029,113.5913 Q333.8638,113.7407 333.1582,113.7407 Q330.6514,113.7407 329.3315,112.0889 Q328.0117,110.437 328.0117,107.3159 Q328.0117,104.1865 329.3315,102.5347 Q330.6514,100.8828 333.1582,100.8828 Q333.8638,100.8828 334.5112,101.0322 Q335.1587,101.1816 335.7231,101.4805 L335.7231,104.2031 Q335.0923,103.6221 334.4988,103.3523 Q333.9053,103.0825 333.2744,103.0825 Q331.9297,103.0825 331.2449,104.1492 Q330.5601,105.2158 330.5601,107.3159 Q330.5601,109.4077 331.2449,110.4744 Q331.9297,111.541 333.2744,111.541 Q333.9053,111.541 334.4988,111.2712 Q335.0923,111.0015 335.7231,110.4204 Z " fill="#000000"/><text fill="#000000" font-family="sans-serif" font-size="12" lengthAdjust="spacing" textLength="170" x="353.75" y="111.5352">JsonSchemaRendererProvider</text><line style="stroke:#A80036;stroke-width:1.5;" x1="8" x2="837" y1="123" y2="123"/><ellipse cx="18" cy="134" rx="3" ry="3" style="stroke:#038048;stroke-width:1.0;fill:none;"/><text fill="#000000" font-family="sans-serif" font-size="11" lengthAdjust="spacing" text-decoration="underline" textLength="183" x="27" y="137.6348">viewType : "jsonschema-renderer"</text><rect fill="none" height="6" style="stroke:#C82930;stroke-width:1.0;" width="6" x="15" y="143.9551"/><text fill="#000000" font-family="sans-serif" font-size="11" lengthAdjust="spacing" textLength="61" x="27" y="150.5898">state : JSON</text><rect fill="none" height="6" style="stroke:#C82930;stroke-width:1.0;" width="6" x="15" y="156.9102"/><text fill="#000000" font-family="sans-serif" font-size="11" lengthAdjust="spacing" textLength="101" x="27" y="163.5449">view : WebviewView</text><line style="stroke:#A80036;stroke-width:1.5;" x1="8" x2="837" y1="169.8652" y2="169.8652"/><ellipse cx="18" cy="180.8652" fill="#84BE84" rx="3" ry="3" style="stroke:#038048;stroke-width:1.0;"/><text fill="#000000" font-family="sans-serif" font-size="11" lengthAdjust="spacing" textLength="82" x="27" y="184.5">dispose() : void</text><ellipse cx="18" cy="193.8203" fill="#84BE84" rx="3" ry="3" style="stroke:#038048;stroke-width:1.0;"/><text fill="#000000" font-family="sans-serif" font-size="11" lengthAdjust="spacing" textLength="104" x="27" y="197.4551">isVisible() : boolean</text><ellipse cx="18" cy="206.7754" fill="#84BE84" rx="3" ry="3" style="stroke:#038048;stroke-width:1.0;"/><text fill="#000000" font-family="sans-serif" font-size="11" lengthAdjust="spacing" textLength="805" x="27" y="210.4102">resolveWebviewView(webviewView: WebviewView, context: WebviewViewResolveContext&lt;unknown&gt;, token: CancellationToken) : void | Thenable&lt;void&gt;</text><ellipse cx="18" cy="219.7305" fill="#84BE84" rx="3" ry="3" style="stroke:#038048;stroke-width:1.0;"/><text fill="#000000" font-family="sans-serif" font-size="11" lengthAdjust="spacing" textLength="201" x="27" y="223.3652">setInitialContent(schema: JSON) : void</text><ellipse cx="18" cy="232.6855" fill="#84BE84" rx="3" ry="3" style="stroke:#038048;stroke-width:1.0;"/><text fill="#000000" font-family="sans-serif" font-size="11" lengthAdjust="spacing" textLength="199" x="27" y="236.3203">updateRenderer(schema: JSON) : void</text><!--MD5=[67b04ae4af4f54cc1dbdf073ba08dc30]
class WebviewViewProvider--><rect codeLine="14" fill="#FEFECE" filter="url(#fgxxdh1cduhbe)" height="24.1328" id="WebviewViewProvider" style="stroke:#A80036;stroke-width:1.5;" width="131" x="357" y="7"/><text fill="#000000" font-family="sans-serif" font-size="12" lengthAdjust="spacing" textLength="125" x="360" y="23.6016">WebviewViewProvider</text><!--MD5=[5dafcad57973794cf861a7ee8fa75195]
reverse link WebviewViewProvider to JsonSchemaRendererProvider--><path codeLine="16" d="M422.5,51.78 C422.5,63.41 422.5,77.12 422.5,90.92 " fill="none" id="WebviewViewProvider-backto-JsonSchemaRendererProvider" style="stroke:#A80036;stroke-width:1.0;stroke-dasharray:7.0,7.0;"/><polygon fill="none" points="415.5,51.46,422.5,31.46,429.5,51.46,415.5,51.46" style="stroke:#A80036;stroke-width:1.0;"/><!--MD5=[f7489df33cfe4f88040219e17db7ce68]
@startuml
skinparam BackgroundColor transparent
hide empty methods
hide empty fields
class "JsonSchemaRendererProvider" {
    {static} +viewType : "jsonschema-renderer"
    -state : JSON
    -view : WebviewView
    +dispose() : void
    +isVisible() : boolean
    +resolveWebviewView(webviewView: WebviewView, context: WebviewViewResolveContext<unknown>, token: CancellationToken) : void | Thenable<void>
    +setInitialContent(schema: JSON) : void
    +updateRenderer(schema: JSON) : void
}
class "WebviewViewProvider"
hide "WebviewViewProvider" circle
"WebviewViewProvider" <|.. "JsonSchemaRendererProvider"
@enduml

PlantUML version 1.2021.14(Fri Nov 12 17:46:50 CET 2021)
(GPL source distribution)
Java Runtime: OpenJDK Runtime Environment
JVM: OpenJDK 64-Bit Server VM
Default Encoding: UTF-8
Language: de
Country: DE
--></g></svg>